<svg viewBox="0 0 400 200" xmlns="http://www.w3.org/2000/svg">
  <rect x="0" y="0" width="400" height="200" fill="#111118" rx="10"/>
  <g transform="translate(50, 50)">
    <rect x="0" y="0" width="40" height="100" fill="#2b2b2b" rx="5"/>
    <rect x="50" y="0" width="40" height="100" fill="#2b2b2b" rx="5"/>
    <rect x="100" y="0" width="40" height="100" fill="#2b2b2b" rx="5"/>
    <rect x="150" y="0" width="40" height="100" fill="#2b2b2b" rx="5"/>
    <line x1="10" y1="50" x2="30" y2="50" stroke="#6c5ce7" stroke-width="5"/>
    <line x1="60" y1="50" x2="80" y2="50" stroke="#6c5ce7" stroke-width="5"/>
    <line x1="110" y1="50" x2="130" y2="50" stroke="#6c5ce7" stroke-width="5"/>
    <line x1="160" y1="50" x2="180" y2="50" stroke="#6c5ce7" stroke-width="5"/>
  </g>
  <text x="220" y="70" font-size="40" font-family="Arial" fill="#fff">HARRYPANEL</text>
  <text x="220" y="120" font-size="20" font-family="Arial" fill="#6c5ce7">v8.0</text>
  <rect x="350" y="150" width="30" height="30" fill="#6c5ce7" rx="5"/>
  <rect x="320" y="150" width="30" height="30" fill="#6c5ce7" rx="5"/>
  <rect x="290" y="150" width="30" height="30" fill="#6c5ce7" rx="5"/>
</svg>